<svg xmlns="http://www.w3.org/2000/svg" viewBox="0 0 240.86 240.86"><defs><style>.cls-1{fill:#fff;stroke:#000;stroke-width:0.8px;}.cls-1,.cls-2{stroke-miterlimit:10;}.cls-2{font-size:26.9px;fill:#ff0;stroke:#666;stroke-width:0.39px;font-family:ArchitectsDaughter-Regular, Architects Daughter;}</style></defs><g id="Layer_2" data-name="Layer 2"><g id="Layer_8" data-name="Layer 8"><rect width="240.86" height="240.86"/><path class="cls-1" d="M159.44,172.76l-24.5-41.61A29.75,29.75,0,0,0,151,104.83C151,88.35,137.41,75,120.6,75S90.17,88.35,90.17,104.83A29.74,29.74,0,0,0,106,131L81.42,172.76Z"/><path class="cls-1" d="M156.8,170.55,134,130.89a28.37,28.37,0,1,0-27-.13L84.06,170.55Z"/><path class="cls-1" d="M155.27,168.42l-21.88-37.84a27.18,27.18,0,1,0-25.84-.13l-22,38Z"/><path class="cls-1" d="M153.33,166l-20.66-35.74a25.67,25.67,0,1,0-24.4-.12L87.53,166Z"/><path class="cls-1" d="M151.52,163.64,132,129.87a24.26,24.26,0,1,0-23.05-.12l-19.6,33.89Z"/><path class="cls-1" d="M149.82,161.46l-18.46-31.92a22.92,22.92,0,1,0-21.79-.1l-18.52,32Z"/><path class="cls-1" d="M148,159.14,130.68,129.2a21.5,21.5,0,1,0-20.44-.1l-17.37,30Z"/><path class="cls-1" d="M146.24,156.9l-16.21-28a20.13,20.13,0,1,0-19.14-.09L94.63,156.9Z"/><path class="cls-1" d="M144.39,154.54l-15-26a18.69,18.69,0,1,0-17.77-.09l-15.1,26.12Z"/><path class="cls-1" d="M142.49,152.12l-13.85-24a17.21,17.21,0,1,0-16.37-.08l-13.9,24.05Z"/><path class="cls-1" d="M140.62,149.72l-12.68-21.93a15.75,15.75,0,1,0-15-.07l-12.72,22Z"/><path class="cls-1" d="M138.74,147.33l-11.5-19.89a14.28,14.28,0,1,0-13.58-.07l-11.54,20Z"/><path class="cls-1" d="M136.87,144.94l-10.32-17.86a12.83,12.83,0,1,0-12.2-.06L104,144.94Z"/><path class="cls-1" d="M135,142.55l-9.15-15.82a11.37,11.37,0,1,0-10.8-.06l-9.18,15.88Z"/><path class="cls-1" d="M133.05,140.06l-7.93-13.7a9.84,9.84,0,1,0-9.35,0l-8,13.75Z"/><path class="cls-1" d="M131,137.5,124.38,126a8.28,8.28,0,1,0-7.87,0l-6.69,11.56Z"/><path class="cls-1" d="M129,134.94l-5.4-9.35a6.71,6.71,0,1,0-6.38,0l-5.42,9.38Z"/><path class="cls-1" d="M127,132.33l-4.12-7.12a5.12,5.12,0,1,0-4.86,0l-4.14,7.15Z"/><path class="cls-1" d="M124.9,129.67l-2.8-4.86a3.5,3.5,0,1,0-3.32,0L116,129.67Z"/><path class="cls-1" d="M122.73,126.9l-1.44-2.5a1.79,1.79,0,1,0-1.71,0l-1.45,2.51Z"/><text class="cls-2" transform="translate(97.69 138.55) rotate(-133.63)">A</text><text class="cls-2" transform="matrix(0.21, -0.98, 0.98, 0.21, 79.34, 107.49)">M</text><text class="cls-2" transform="translate(97.55 71.46) rotate(-22.09)">A</text><text class="cls-2" transform="translate(133.1 66.39) rotate(30.63)">D</text><text class="cls-2" transform="matrix(0.12, 0.99, -0.99, 0.12, 158.79, 91.73)">A</text><text class="cls-2" transform="translate(153.98 127.26) rotate(133.89)">Y</text></g></g></svg>